<?xml version="1.0" encoding="UTF-8"?>
<svg id="Layer_2" data-name="Layer 2" xmlns="http://www.w3.org/2000/svg" viewBox="0 0 239.26 240.27">
  <defs>
    <style>
      .cls-1 {
       
        stroke-width: 0px;
      }
    </style>
  </defs>
  <g id="Layer_1-2" data-name="Layer 1">
    <g>
      <path class="cls-1" d="M117.66,45.85c.69-1.41,1.87-2.35,2.81-3.51,1.39-1.64,2.58-3.51,3.74-5.15.48-.71,1.41-1.64,2.35-2.1l-1.41,2.1c-2.33,4.45-4.45,9.14-7.02,13.59-2.35,3.97-4.22,8.19-6.32,12.18l-1.41,2.81c-.94,1.64-2.1,3.03-2.81,4.68-.23.71-.71,1.41-1.16,2.12-.48.71-.71,1.64-.94,2.33,0,.25,0,.71.23.96.46.46.23.69-.23.94-.25.23-.48.69-.71,1.16-.48.94-.94,2.1-1.64,3.03-.23.48-.71.96-.94,1.41-.71.94-1.64,1.87-1.87,3.05-.48,1.87-1.41,3.26-2.35,4.9-1.16,1.87-2.35,3.76-3.51,5.86l-2.12,4.22c-.94,1.87-2.1,3.51-3.03,5.38-.71,1.16-1.64,2.35-1.64,3.99,0,.23,0,.46-.23.46-.94.71-1.41,1.64-2.12,2.81l-1.39,2.12c-.71,1.41-1.64,2.58-2.35,3.97l-2.1,4.22c-1.41,2.35-3.05,4.7-4.47,7.02l-5.61,10.56c-1.64,3.03-3.05,6.09-4.45,9.12l-7.73,18.27c-1.41,3.51-2.1,7.27-3.28,10.79-.23.46-.23.94-.23,1.39,0,.25.23.48.23.71.23-.23.48-.23.48-.46.94-1.89,2.33-3.53,2.81-5.63v-.71l2.81-5.61c1.64-3.05,2.81-6.34,4.93-9.14,1.16-1.39,1.64-3.28,3.03-4.68,1.18-.94,1.89-2.58,2.58-3.99.71-1.87,1.87-3.51,3.05-5.15,1.39-2.1,2.58-4.22,3.97-6.32l2.83-4.93,2.1-2.81c.71-.94,1.41-2.1,2.12-3.03l3.51-4.22,2.81-4.22c.23-.48.46-.71.46-1.18-.23-1.16.94-3.26,1.89-3.51,1.16-.23,1.39-1.16,1.87-1.87l.69-.71c.71-.69,1.18-1.39.96-2.33,0-.48,1.39-1.87,1.62-2.12h-.94l.71-.69c.23-.48.48-.96.94-1.18,1.18-.71,1.41-1.87,1.87-3.03.25-.94.71-2.12,1.41-2.83.94-.94,1.64-1.87,1.87-3.26,0-.25.23-.48.48-.48.94-.71.94-2.1,1.87-2.81v-.23c-.23-.71.23-1.18.46-1.64l.71-1.41c0-.23,0-.46.25-.71.69-.94,1.62-1.87,2.1-3.03.23-.71,1.16-.94,1.16-1.64.25-1.16.71-2.12,1.41-3.05l.71-1.39c.23-.25.46-.48.23-.94-.48-.48-.23-.94.23-1.41.94-1.16,1.18-2.81,2.58-3.74.25,0,.25-.25.25-.48.23-.71.46-1.39.94-2.1.46-.94,1.16-1.87,1.62-2.81.25-.25.48-.48.48,0,.23.69.48.23.71,0l2.81-4.93.71-.71c.46-.46.94-.94,1.16-1.41.48-.69.71-1.39,1.18-2.1.46-.94,1.16-1.64,1.62-2.35.25-.46.96-.94-.23-1.39v-.48c.23-.71.71-1.39,1.41-1.87s1.39-.94,1.16-1.87c0-.23,0-.48.23-.48,1.18-.46,1.18-1.87,2.12-2.58.23-.23.46-.94.23-1.16-.46-.71-.46-.94.23-1.16.25,0,.48-.48.71-.71l.71-1.41c.94-1.64,2.1-3.03,2.58-4.9,0-.25.23-.48.48-.48.69,0,.46-.48.46-.94,0-.23.23-.48.48-.71.23,0,.46-.23.69-.46-.69-.96.48-1.18.71-1.64l.71-1.41,2.1-2.81c.48-.71.96-1.41,1.41-2.35.48-.71.71-1.64,1.16-2.35.71-1.39,1.64-2.81,2.58-4.2.96-1.64.96-3.53.96-5.4,0-.46-.25-.94-.48-1.39l-1.87-2.35c-.48-1.16-1.41-1.87-2.35-2.58-.46-.48-.71-.71-.94-.71-.48,0-.71.23-1.16.71-.94.94-1.64,1.87-2.35,2.81-.48.48-.94.71-1.64.94-1.87.48-3.03,1.41-4.22,3.05-2.33,3.51-5.38,6.32-8.19,9.6-2.35,2.81-4.93,5.38-7.27,7.96-1.87,2.12-3.74,4.45-5.61,6.8-.94.94-1.87,2.1-2.81,3.03-13.82,16.65-26,34.21-37.49,52.47-1.62,2.81-3.51,5.38-5.38,7.96-.23.48-.46.71-.94,1.16,0-1.39.23-2.33.48-3.26l8.42-29.51c.25-.48.25-.94.48-1.41.94-2.35,1.87-4.68,3.05-7.02l.69-.71c.94-.94,1.87-1.87,2.12-3.28.23-1.87.71-3.51,1.64-5.15.23-.46.23-1.16.46-1.87.23-.46.23-.94.48-1.39.23-.94.71-1.89.71-2.83,0-.69,0-1.39.23-2.1.23-.23.23-.48.23-.71,0-1.16,0-2.1-.46-3.03-.48-1.18-.71-2.35-1.18-3.51-1.16-2.35-3.03-2.83-5.38-3.51-.48-.25-.94,0-1.16.69l-.71,2.12c-.23.46-.23,1.16-.71,1.39-.94.48-1.41,1.18-1.64,1.89-.71,1.39-1.87,2.33-2.81,3.51l-.71.69c-.94,1.41-1.64,2.83-2.58,4.22-3.03,4.7-6.32,8.91-9.37,13.36-1.64,2.33-3.51,4.68-5.15,7.02-2.58,3.28-4.9,6.8-7.48,10.06l-7.73,9.85-5.63,8.42c-.94,1.41-1.87,3.05-3.03,4.47-3.05,3.26-5.63,7.02-8.21,10.76-1.16,1.64-2.1,3.28-3.51,4.45-1.39,1.41-2.58,3.05-3.74,4.7l-1.41,1.39c-.94,1.16-1.87,2.12-2.81,3.05l-6.32,6.32c-.71.71-1.18,1.64-1.87,2.35-.71.69-1.18,1.39-.94,2.58,0,.23-.25.69-.48,1.16-.23.71,0,1.16.71,1.41h.71c.94,0,1.87,0,2.81-.25.23,0,.46,0,.71-.23.94-.94,2.1-1.41,3.28-1.87.69-.23,1.39-.48,2.1-.94l2.81-2.12c.71-.46,1.41-.94,1.87-1.64.48-.94,1.18-1.39,2.12-1.87.46-.23,1.16-.69,1.16-1.16,0-1.16,3.51-3.74,4.45-4.22.94-.71,1.64-1.64,2.35-2.58.71-1.16,1.64-2.1,2.58-3.03.71-.94,1.64-1.64,2.1-2.58.94-1.89,2.12-3.28,3.51-4.7,1.89-1.87,3.76-3.74,5.4-5.84,2.58-2.58,3.97-4.93,5.61-7.98.94-2.33,2.81-3.97,3.99-6.32,1.87-1.41,3.03-3.51,4.68-5.38.71-.94,1.16-2.12,1.87-3.05,1.64-1.87,3.05-3.74,3.76-6.32.23-.94.69-1.87,1.16-2.81,0-.23.23-.23.46-.48.48-.46.71-.94.48-1.64v-.69c1.16-2.12,2.35-4.22,3.51-6.09.71-1.41,1.64-2.83,2.58-4.22l4.22-6.34c.23.25.23.48.23.71l-2.81,9.14c-2.81,7.02-4.93,14.75-6.57,22.01-.94,4.22-2.1,8.44-3.03,12.66l-1.41,5.61-1.39,4.22-1.41,5.61c-.23,1.41.48,2.12,1.64,2.58.46.25,1.16.48,1.64.48.94,0,1.64-.48,2.58-.94l1.39-.71c2.12-1.41,3.76-3.28,5.4-5.15.94-1.16,1.62-2.58,2.58-3.74,1.62-2.12,3.51-4.22,5.38-6.32.71-.71,1.16-1.41,1.64-2.12l2.1-3.51,1.41-1.41c3.51-4.9,7.02-9.83,10.06-14.98.94-1.64,2.12-3.28,3.28-4.9,1.16-1.64,2.58-3.28,3.74-4.93l4.93-7.73c1.16-1.64,2.1-3.28,3.28-4.68,2.58-3.05,5.15-6.57,7.25-9.85,1.41-1.87,3.51-3.28,4.7-5.38Z"/>
      <path class="cls-1" d="M238.29,22.11c-.58-1.7-.85-3.41-1.7-4.82C228.94,1.7,214.2,0,198.62,0c-3.97.29-7.94.85-11.91,1.41-1.41.29-2.83.85-4.24,1.14-1.7.29-3.41.56-5.11.85-.85,0-4.24.85-4.8,1.41-1.99.56-3.97,1.14-5.96,1.7-1.97.56-3.97,1.12-5.94,1.97-.85.29-1.7.58-2.56,1.14-6.23,3.12-12.74,6.8-18.7,10.47-1.41,1.14-2.83,2.27-4.24,3.41-.29.29-.56.56-.85.56-1.41-.27-2.27.85-3.41,1.41-.27,0-.27.29-.27.58,0,1.12.56,1.97.85,2.83.83,1.97,1.97,3.68,3.95,4.53.58.29,1.43.85,2.29.56,1.12-.56,2.27-.85,3.39-1.12.29,0,.56,0,.85-.29.85-1.12,2.27-1.41,3.41-2.27,1.68-.85,3.39-1.7,5.09-2.56.29-.83,1.41-.83,1.99-1.41,1.12-.85,2.54-1.41,3.95-2.27l5.11-2.56c1.41-.83,2.83-1.68,4.24-2.54h.85c1.14-.58,1.99-1.14,2.56-1.99.56,0,1.12,0,1.7-.27.56-.29.85-.58,1.41-.85.56-.29,1.41-.56,1.97-.56.85,0,1.43-.29,1.43-1.14.83-.29,1.68-.29,2.54-.56.56,0,1.14,0,1.41-.29,1.14-1.12,2.27-1.12,3.7-1.12.85,0,1.68-.29,1.97-1.14q.85.56,1.7,0h.85c.56-.29,1.12-.29,1.7-.56.56-.29,1.12-.85,1.68-.85,1.7-.29,3.41-.29,5.11-.56,1.12,0,2.27,0,3.39-.29,1.99-.29,3.7-.56,5.67-.56,2.27.27,4.53.56,6.8.85,1.14.27,2.27.56,3.41.83,3.12.85,5.67,1.99,8.21,3.97.58.29.85.85,1.14,1.43.56.83.27,1.68,0,2.54-.56,3.97-1.7,7.38-3.41,11.06-1.97,5.67-2.83,7.09-6.5,11.91-1.7,1.68-3.7,3.39-5.96,4.8-.56.29-1.41.58-1.68,1.14-.29.56-9.08,6.5-10.49,7.09-1.7.85-3.41,1.97-5.09,3.12h-.85c-1.41.85-2.85,1.7-4.26,2.54-1.7.85-3.39,1.99-5.09,2.85-2.56,1.41-5.11,2.54-7.65,3.68-.85.29-1.7.56-2.56,1.14v-1.14c.29-.56.56-1.14.85-1.7.29-.27.29-.85.56-1.12.56-.29.85-.85.56-1.43-.27-.56,0-.83.29-1.12.85-.56,1.7-1.14,2.27-1.97.56-.58,1.14-1.43,1.41-2.29.29-.83,1.14-1.41.58-2.27,0-.27,0-.85.56-.85,1.12.29,1.12-.27,1.41-.83.29-.58.56-1.14.85-1.7,0-.29.29-.29.29-.58.27-.83.27-1.68.83-2.54.58-1.14,1.14-2.27,1.7-3.41.29-.27.58-.56.58-.85l1.68-4.24v-.85c.58-1.41.58-3.12,1.7-4.53.56-.85.56-1.99.85-2.85.29-.56.56-1.12.85-1.68.29-.58.56-1.14.56-1.7v-2.56s-.27,0-.56.29c0-3.41-.29-5.96-3.41-7.65-.85-.29-1.41-1.14-2.27-1.7-.27-.29-.85-.29-1.12-.29-.85,0-1.7.29-2.56.56-.29,0-.85.29-1.14.58-.56.56-.83,1.41-1.41,1.97-.56.85-.85,1.99-1.97,2.56.29,1.12-.29,1.97-.85,2.83-.29.85-.85,1.7-1.41,2.56-1.14,1.97-2.27,3.97-3.41,5.94-.85,1.41-1.7,2.85-2.56,4.26-.83,1.7-1.68,3.39-2.54,5.09-.56,1.41-1.14,2.56-1.7,3.97s-1.14,2.83-1.97,4.24c-.85,1.43-1.7,2.85-2.56,4.26-.56.85-.85,1.7-1.14,2.56-.85,1.7-1.7,3.39-2.54,5.09-.85,1.99-1.7,3.97-2.56,5.94-.56,1.14-1.14,2.29-1.7,3.41-.56,1.41-1.41,2.83-1.97,4.26-.58,1.12-1.14,2.27-1.7,3.39,0,.29-.29.56-.56.56-1.43.58-2.56,1.7-3.97,1.99h-.85c-1.14.56-2.27.85-3.12,1.7-.56.56-1.41.56-1.99,1.12-1.41,1.14-3.12,1.7-4.24,3.41-1.41.85-2.83,1.7-4.26,2.56-.56.27-1.12.56-1.68.83-1.43.85-2.56,1.99-4.26,2.85-1.12,1.12-2.27,2.27-3.41,3.39-.83.85-1.41,1.99-1.41,3.12,0,.58.29,1.14.58,1.7h2.54c.58,0,.85.29,1.14.85.27.85.85,1.41,1.7,1.41.27,0,.56,0,.83-.27,0-1.43,3.41-3.12,4.55-3.41,1.12-.29,2.27-.56,3.12-1.14.56-.27,1.12-.83,1.68-1.12,1.14-.56,2.27-.85,3.41-1.14,0,.29,0,.58-.29.85-.56.58-1.12,1.14-.56,1.99-.85,1.41-1.7,2.54-2.56,3.68l-1.68,2.56c-.58,1.12-.85,2.54-1.43,3.68-.56,1.12-1.12,2.27-1.68,3.41-.29.56-.29,1.41-.58,1.97-.56,1.41-1.41,2.83-2.27,4.24-.27.29-.56.58-.56.85.29.85-.29,1.43-.56,1.99-.85,1.41-1.99,2.56-2.85,3.97-.83,1.41-1.68,2.83-2.54,4.24-1.41,2.56-2.85,5.11-4.26,7.65-1.7,3.12-3.39,6.23-5.09,9.35-1.7,3.41-3.41,6.8-5.11,10.2-.85,1.7-1.68,3.41-2.54,5.09l-2.56,5.11c-.85,1.7-1.7,3.39-2.56,5.09-.27.29,0,.85-.27,1.14-.58,1.12-1.14,2.27-1.7,3.39-.29.58-.56,1.14-.85,1.7-.29.58-.29,1.14-.56,1.7-.29.56-.58,1.14-.85,1.7-.58,1.41-1.14,2.83-1.7,4.24-.56,1.43-1.7,3.97-2.83,4.82-.29.29-.85.85-.58,1.7.29.29.29.85-.27,1.12-.29,0-.58.29-.58.58-.56,2.54-2.27,4.53-3.39,6.8-1.41.85-.56,1.97-.29,2.83.56,1.41,1.41,1.7,2.85,1.7.56-.56,1.12-.29,1.68,0,.58.29,1.14.29,1.7,0s1.14-.56,1.7-.85c-.29.56-.56,1.14-1.14,1.41-2.27,1.99-4.8,3.97-7.07,5.96-1.43,1.41-2.85,2.83-4.26,4.24-.56.56-1.41.85-1.97,1.41-1.43,1.14-2.85,2.27-4.26,3.41l-2.56,2.56-3.39,3.39c-1.14,1.14-1.99,2.27-3.12,3.41l-2.56,2.56c-.85.85-1.7,1.68-2.56,2.54-1.12,1.14-2.27,2.27-3.39,3.41,1.41,0,1.97-1.14,2.83-1.7,1.14-.56,3.12-2.27,3.97-3.12,1.14-.85,2.27-1.7,3.41-2.56.85-.56,1.68-1.12,2.54-1.68.29-.29.29-.58.58-.85.27-.58.56-1.14.83-1.41.58,0,1.14,0,1.43-.29.56-.29.85-.85,1.12-1.14,1.41-1.41,2.85-2.83,4.26-4.24,1.12-.85,2.27-1.7,3.39-2.56l2.56-2.56c.29-.27.56-.27.85-.56.29-.27.56-.56.85-.85.85-.85,1.7-1.7,2.83-2.27.85-.56,1.99-1.12,2.83-1.7.58-.27,1.14-.56,1.7-.83,1.41-.85,2.85-1.7,4.26-2.85.85-.56,1.7-1.12,2.56-1.7h-.85c1.12,0,1.97,0,2.83-.85,1.7-.27,2.83-1.41,3.97-2.27,1.12-.85,2.27-1.68,3.39-2.54.85-.58,1.7-1.14,2.56-1.7s1.7-1.14,2.56-1.7,1.7-1.12,2.56-1.7c.56-.27,1.12-.56,1.68-.85.29-.27.85-.27,1.14-.56.56-.85,1.7-.56,2.27-1.41.29-.29,1.14-.56,1.7-1.14.85-.85,2.27-.56,3.12-1.68,1.12-.29,1.97-.58,2.54-1.43.29-.83,3.12-2.54,3.7-2.83.27,0,.27-.56.56-.56.56-.29.85-.85,1.12-1.41.58-1.14,1.7-1.99,2.85-2.27,1.12-.29,1.41-1.14,1.97-1.7.29-.29.58-.56,1.14-.85s1.12-.56,1.7-.85c.56-.29.85-.85,1.41-1.14.56-.27,1.41-.27,1.7-.83.83-.85,1.41-1.7,2.54-1.99.29,0,.58-.29.58-.56.83-1.41,1.97-2.56,3.68-3.12.27,0,.56-.29.85-.56.56-.58.85-1.14,1.41-1.7.85-.85.85-1.14,0-1.99.29-.27.56-.56.85-.85.27.58-.56,1.43.27,1.14.85-.29,1.7-.85,2.56-1.14.85-.27,1.41-.83,2.27-1.12s.85-.56.29-1.14c-.29-.27-.29-.85-.29-1.12,0-.29.29-.56.56-.56h1.7c-.27.56-.56,1.12-.85,1.68,1.14-.27,1.43-1.12.85-1.97.58.29,1.14.56,1.7,1.12.29-.56.56-.83.85-1.41.56-.27.85-1.12,1.14-1.97,0-.56.27-1.14.56-1.41,1.41-.58,2.83-.85,3.39-2.27.29,0,.58.27.58.27.56-.27,2.27-1.7,2.27-2.27,0-.85.56-1.41,1.12-1.41,1.41-.29,2.27-1.41,3.41-1.97.56-.29.85-.58,1.41-.29l.56-.29c0-.85.58-.56.85-.56,0-.85.29-2.27,1.14-2.83h.85c.56-.29,1.41-.29,1.41-1.41,0,0,.27-.29.56-.29s.56,0,.56-.29c.58-.85,1.14-1.7,1.7-2.54,0-.29.29-.58.29-.85h.85c-.29-1.43.85-1.7,1.41-2.56,1.12,0,1.7-.85,1.12-1.7h1.7v-1.12h1.7c-.29.27-.56.56-.56.85,0,.27.27.56.27.56.58-.29,1.14-.56,1.7-.85-.27-.29-.56-.56-.85-.85.29-.29.58-.56.85-.85-.27-.85-.56-1.7-1.7-1.7.29,0,.58-.27.85-.27h1.14c.27,0,.85,0,1.12.56.29-.56.58-1.14.85-1.7q.58,1.14,1.41.56c-.56-.85.29-1.12.58-1.68.27-.29.56-.58.85-.85.27-.29.56-.29.83-.58l.85.85.85.85s.29-.27.58-.56c.27,0,.27-.29.56-.56-.29-.29-.56-.29-.56-.58-.29-.27-.29-.85-.85-1.12-.29,0-.85-.85-.29-1.14.56-.27.29-.85.56-1.41.29-.27.29-.85.58-1.12.56-.29.83-.58.56-1.14.27-.29.56-.56.85-.56.56,0,1.12-.29,1.41-.85h.56q1.14,0,1.41-1.14v-.85c0-.27.29-.56.58-.56.85-.27.85-.85.85-1.41v-.85c.83,0,.56-.85.83-1.12.29-.58.58-1.14.85-1.43h1.41v-.83l1.7-1.7c.29-.85.58-1.7.85-2.56.29,0,.56.29.56.29l.85-.85s-.27-.29-.56-.29q-1.12-.56-.56-1.7v-.85c.56-.85,1.41-1.68.27-2.83h1.43c-.58-.29-.85-.56-1.14-.85-.29-.56,0-1.12.56-1.41.58-.29,1.14-.56,1.43-.56.56,0,1.97,1.41,2.54,1.97,0,.56,0,1.14.29,1.99,0,.56,0,1.12.56,1.68v.58h.85c.29.85-.85.56-1.12,1.12.56.56.56.85,0,1.14-.29.27-.58.56-.85.85.56,0,.85,0,1.12.27.29,0,.56.29.56.29-.27.29-.56.85-.83,1.12-.85.58-.58,1.43-.85,2.29.27.27.56.27.85.56v.56h-.58c-.56-.29-.85,0-1.12.29-.29.27-.58.56-.85.56-.85.29-.85.85-.29,1.41.29.29.29.56.29.85s-.29.56-.56.85c.27,0,.27-.29.56-.29h.56c.56.58.29,1.99-.29,2.56v.56c0,.29.29.29.29.58h-.85c-.27,0-.56,0-.56.27-.29.29-.56.85-.56,1.41v.85c.56-.56.27,0,.56.29,1.12-.29,1.41-.56,1.41-1.7,0-.85.29-1.12,1.14-1.41.56-.29.85-.29.56-.85-.29-.29,0-1.14.29-1.14.83-.27.83-.56.27-1.12.56-.29.85-.56,1.41-.85h-.85c.29-.29.29-.56.58-.85.27-.56.56-1.12-.29-1.41,0-.29-.29-.56-.29-.85s.29-.29.58-.29c.27,0,.56.29.85.29.27,0,.56-.29.83-.56-.27-.29-.56-.56-.83-.85,0-.29-.29-.56-.58-.85.29,0,.58-.29.85-.29.85,0,1.14-.27.85-1.12.29-.29.56-.56.56-.85,0-.56-.27-1.14-.56-1.7l-.85-.85c.29-.27.85-1.12.85-1.7s-.29-1.12-.29-1.68v-1.7c0-.85-.56-1.41-.56-1.99-.27-1.12-.56-2.27-.85-3.39-.56-1.41-1.41-2.56-2.27-3.7-1.12-1.41-2.27-2.83-3.39-4.24-1.99-2.56-3.41-3.68-5.96-5.67-6.8-5.94-15.59-6.23-24.09-6.23-.56,0-1.12,0-1.41.29h-.85c-1.68.29-3.39.56-5.38.85.85-.29,1.41-.56,1.99-.85.85-.29,1.97-.29,2.83-.56,1.7-.85,3.68-1.14,4.82-2.56v.85q0-.85.85-.29c.27.29.56.29.56.29.56,0,.56-.29.85-1.14h2.56c1.41-.56,2.83-1.41,4.24-1.97.85-.29,1.41-.85,1.7-1.97,0-.29.29-.58.56-.58.56,0,1.14.29,1.7.29h2.56c.56,0,1.12-.29,1.7-.56h.83c-.83.27-1.68.56-2.54.85-.58,0-.85.27-1.14.27-.56,0-.85-.27-1.12-.85h2.54v-.85h1.7c.85,0,1.41-.27,1.7-1.12s1.7-1.7,2.27-1.7l.85-.85c.56-.29,1.12-.56,1.41-.85.56-.27.85-.56,1.41-.56,1.14.29,1.7-.29,1.41-1.41,0-.29.29-.58.29-.58.56,0,1.14.29,1.7.58-.56.56-1.7,0-1.7,1.12.29,0,.56,0,.85.29h-.85c-.85,0-1.12.29-1.12,1.12v.85h.83c.58-.27,1.14-.56,1.7-.85.29,0,.85.29,1.14,0,.56-.27.85-.83,1.41-1.41.29-.27.56-.56.85-.56.85-.56,1.7-1.14,2.56-1.7h-.85c.27-.27.56-.27.85-.56.56-.29,1.12-.56,1.68-1.14.85-.56,1.7-1.41,2.85-2.27.56-.56,1.12-1.12,1.7-1.68.56.27.56,0,.83-.29.58-.56,1.14-1.14,1.7-1.7.85-.85,1.99-1.7,2.85-2.56.27-.27.56-.85.83-1.41.85-1.7,1.7-3.39,2.56-5.09.56-1.14,1.41-2.27.85-3.68,0-.29.29-.58.29-.85.27-.29.56-.58.56-.85v-2.56c0-.29.29-.56.29-.85.27-1.12.56-2.27.85-3.39v-5.11c0-.56.27-1.41,0-1.97l-.85-3.12ZM84.16,219.3q-.58-.56.27-1.14v.85l-.27.29ZM220.15,109.66c.29,0,.85,0,.56.56-.27.29-.85.56-1.12.85,0-.29-.29-.56-.29-.85s.29-.56.56-.85l.29.29ZM216.74,99.73h-.83.83ZM152.15,102.01c.29-.29.56-.58.85-.85.27.27.27.56.56.85.29-.29.56-.58.85-.85.56.85.29,1.41-.56,1.41-.29.27-.58.27-.85.27v-.83h-.85ZM152.71,104.55c.29,0,.56.56.56.85,0,.56-.27.85-.83.85h-.85c0-.85.85-1.7,1.68-1.41l-.56-.29ZM149.89,111.34h.85l-.85.85c0-.27,0-.85.56-.85h-.56ZM148.47,116.46q.56.85-.29,1.12v-1.12h.29ZM143.92,121.84s.29.29.58.56c-.29.29-.58.56-1.14.56.29-.27.56-.56.85-.83l-.29-.29ZM142.51,125.81c-.27.56-.85.85-1.41,1.12.56-.27,1.14-.56,1.7-1.12h-.29ZM138.54,132.04c.85,0,.85.56.85.85,0,.27-.27.56-.56.56-.56,0-1.12,0-.85-.85-.27.29-.56.56-.85.85,0-.56.58-1.14,1.41-1.14v-.27ZM137.13,135.72c-.27.56-.56.85-.85,1.14.29,0,.58-.29.85-.29v-.85ZM136.86,139.4q-.29.85-1.14.29h1.41l-.27-.29ZM132.89,143.93c.56-.27,1.41-.56,1.12-1.68,0,0,.29-.29.29-.58.29.58.56,1.14.85,1.7,0,0-.29.29-.56.29q-.85.27-.58,1.12c-.56,0-1.12,0-1.41-.27-.29-.29,0-.58.29-.85v.27ZM130.89,147.34c.58,0,1.14,0,1.99.29-.29.27-.58.56-.58.56-.27,0-.56-.29-.83-.56l-.58-.29ZM130.04,150.16c0-.27.29-.56.58-.56.27-.29.56-.29.85-.56v1.97c-.29,0-.58-.27-.58-.27-.85,0-.85.56-1.41,1.12v-1.97l.56.27ZM126.92,155.27c-.27.27-.27.56-.83.85.27-.29.56-.58.83-.85ZM126.36,157.54v.85h-.85v-.85h.85ZM120.71,165.19c.56-.85,1.41-.29,2.27-.85-.58,1.14-1.14,1.97-1.99,2.83-.27,0-.56-.27-.56-.27,0-.58.29-1.14.29-1.7-.29-.29-.58-.56-.85-.85l.85.85ZM112.48,183.31c-.29.29-.56.58-.85.58.29-.29.56-.58.85-.85v.27ZM102.57,196.07c0-.56.29-1.14.85-1.14.27,0,.56.29.85.58-.29.27-.58.56-.85.85l-.85-.29ZM107.1,192.95c-.29.29-.56.56-1.12.85.83.29,1.12.85.83,1.41,0,.29-.27.56-.56.56-.27,0-.56-.27-.56-.56v-.85c0-.56,0-.85-.85-1.41.56-.29.85-.56,1.14-.56.56,0,1.12,0,1.68.27.29.29.29.85,0,1.14l-.56-.85ZM108.51,192.1c-.56-.29-1.12-.29-.85-1.12-.56-.29-.56-.58-.27-1.14.27-.29.56-.56.85-.85v-.85c.56-.85,1.12-1.7,1.68-2.27,0-.27.58-.27.85-.27.29,0,.58.56.58.83-.58,1.14-1.14,2.29-1.7,3.41,0,.29-.29.29-.56.29-.58.27-.85.85-.58,1.68v.29ZM113.33,201.74h.85c-.29.27-.56.56-.85.27v-.27ZM181.89,88.11c.29,0,.58-.27.85-.56,1.14-.56,2.56-.56,3.97-.56h5.96c4.24,0,9.91.29,13.59,2.56.56.27,1.14.85,1.7,1.12.27.29.56.29.85.56.27.29.56.58.85.85.56-.27.83.29,1.12.85.29,1.14.56,2.27.85,3.41,0,.27-.29.56-.29.85.29,1.41.58,2.83.58,4.24,0,.85-.29,1.7-.29,2.56,0,.56,0,1.12.56,1.7.29.27.29.85,0,1.12-.85,1.14-1.7,2.27-2.54,3.41-.85,1.41-1.7,3.12-2.56,4.53.29,0,.56-.29.85-.29.27,0,.56,0,.85.29v.56c-.29.29-.58.58-.85,1.14.27-.29.56-.56.85-.56h.85v.56c-.85.27-1.43,1.12-1.7,1.7-.56.85-1.41,1.12-2.27,1.41-.29,0-.58,0-.85.27-1.14,1.14-2.27,2.29-3.68,3.41-1.14.56-1.7,1.41-2.29,2.27-.27.29-.56.56-.83.85-.29.29-.85.56-.29,1.14,0,.27,0,.83-.29.83-.85.58-1.41,1.43-2.54,1.7-1.43.58-2.56,1.41-3.7,2.56-.85.85-1.97,1.41-2.83,1.97-.29.29-.56.58-1.14.85-.27.29-.83.29-1.41.29s-1.12,0-1.41.29c-1.41,1.12-2.83,2.27-4.24,3.39-1.14.85-2.27,1.99-3.7,2.56-1.97.85-3.12,2.56-4.8,3.68-1.14.56-1.99,1.41-2.85,2.27-1.12.85-2.27,1.99-3.39,2.85-1.14.83-2.27,1.68-3.41,2.54-1.12.85-1.97,1.7-3.12,2.56l-2.56,2.56c-1.41,1.12-2.83,2.27-4.24,3.39-1.41,1.41-2.83,2.85-4.26,4.26-7.07,5.94-14.15,10.76-21.8,15.86-1.99,1.41-3.97,2.85-5.96,4.26-.56.56-1.41.85-1.97,1.41-.85.56-1.7,1.41-2.56,1.97-.85.58-1.7,1.14-2.56,1.7-1.12.85-2.27,1.7-3.39,2.56-.56.29-1.14.56-1.7.85v-1.7c0-.29,0-.85.29-1.14.56-.27,2.27-2.54,2.27-3.39-.29-1.14.27-1.99.56-2.83.85-.85,1.7-1.43,2.27-2.29.29-.56.56-1.12.85-1.68.56-.58,4.24-7.09,4.53-7.94s.85-1.41,1.7-1.99c0-1.12.85-1.68,1.41-2.54s1.41-1.7,1.14-2.85c0-.27.56-.83.83-.83,1.14,0,.85-.85,1.14-1.43.29-.56.56-1.12.85-1.68.29-.58.56-1.14.56-1.99s.29-1.7.85-2.27c.29-.56,1.14-.85,1.7-1.41.85-.85,1.12-1.99,1.41-3.12.29-.56.85-1.14,1.14-1.7.27-.85.56-1.7.83-2.56v-.85h1.14v-.83c-.29-.58,0-.85.56-1.14.29,0,.58-.29.58-.56.56-1.14,1.12-2.27,1.68-3.41.29-.27.58-.56.85-.85.58-1.12.85-2.27,1.99-3.12v-.56c0-.56,0-1.12.56-1.41.29,0,.29-.29.29-.56.56-.85.27-1.99,1.12-2.56v-.56c.29-.85.85-1.43,1.14-2.27.27-.85.56-1.7.56-2.56,0-.56.29-.85.85-.85.85,0,1.41-.29,1.7-1.41.27-.56.27-1.14.85-1.41.56-.29.56-.85.56-1.43,0-.83.56-1.41,1.41-1.97.29-.29.56-.85.56-1.41,0-.85.58-1.41,1.14-1.99.56-.56.56-1.41.85-2.27,0-.27.27-.56.56-.85.85-1.41,1.7-2.83,2.83-3.95.58-.85,1.14-1.99,1.7-3.12.56-1.14,1.14-2.29,1.7-3.41.29-.85.56-1.7.85-2.56.27-.56.56-1.12.85-1.7.85-1.68,1.7-3.39,2.54-5.09.29-.56.29-1.14.58-1.7.27-.56.85-.85,1.12-1.41.58-1.12,1.14-2.27,1.7-3.41.56-1.12,1.97-1.41,3.12-1.41,1.41-.27,2.83-.56,4.26-.85.83-.27,1.68-.56,2.54-.85,1.7-.27,3.41-.56,5.11-.83l1.68,3.95ZM211.08,128.34c0,.29.27.29.27.29.29,0,.58-.29.85-.56-.27.85-.56,1.7-.85,2.56-.56-.58-.85-1.14-1.12-1.43-.29-.27-.56-.27-.85-.27,0,.56.29.56.56.85.29,0,.29.27.56.56h-.83c.27.85,0,1.41-.58,1.7l-.85.85c-.27.56-.27,1.12-.27,1.68,0,.29.27.58.27.58.29-.58.58-1.14.85-1.14.85-.27,1.14-.56,1.41-1.41,0-.56,0-1.41,1.14-1.14.29,0,.85-.27.85-.56.29-.85.85-1.41,1.41-2.27v-.56c-.29-.29-.56-.29-.85-.29-.56,0-1.12.29-1.41.56h-.56ZM215.32,125.81c-.56-.29-1.12-.85-1.7-.85-.27,0-.83.29-1.12.56l.85.85c.27,0,.27.29.56.29.29.27.56.56.85.85,0,0,.29-.29.29-.58,0-.56.56-1.12,0-1.41l.27.29ZM211.35,116.73h.58c.27-.27.56-.56.85-.83.27-.58.56-1.14.83-1.7,0-.29-.27-.56-.56-.85v-.56c-.27,0-.56,0-.56.27-.29.29-.29.58-.56.85.27.56,0,1.41-.58,1.99v.83ZM207.68,65.46c1.14-.29,2.27.27,2.83-1.14h-1.97c-.29.29-.56.56-.85,1.14ZM218.73,105.69c-.56-.29-.85-.29-.85-.29v1.41c0,.29.56.29.85.29v-1.7.29ZM214.2,123.81c.56,0,1.12,0,1.7-.27v.85c.56-.29.56-.85.56-1.43h-.85c-.85,0-1.41.29-1.41.85ZM194.36,137.69c-.27.29-.27.85-.27,1.43.85-.58,1.12-1.14,1.41-1.99-.29.29-.56.29-.56.56h-.58ZM211.08,124.1c.27,0,.56.29.85.56.56-1.12.56-1.41-.29-1.7-.29.29-.56.58-.85.85l.29.29ZM212.5,62.34c-.56.27-1.14.56-1.99.85.29.27.58.56.85.85l.85-.85.29-.85ZM200.88,129.78c.29-.58.56-1.14.85-1.7-1.41.27-1.41.56-.56,1.41l-.29.29ZM204.29,122.4h.56c.56-.27.27-.56,0-.85-.56.29-.56.58-.29,1.14l-.27-.29ZM217.88,118.43h-.85v.85h.85v-.85ZM214.2,123.25h-1.7,1.7ZM206.26,131.46v-.83c-.85.27-.56.56-.29.83h.29Z"/>
    </g>
  </g>
</svg>